#!OML:ASF F:\VICON\USERDATA\INSTALL\Justin_Nancy\Justin_Nancy.ASF
:FULLY-SPECIFIED
:DEGREES
130
root -5.95818 16.8541 8.9565 -2.59387 -44.3303 9.21226
lowerback 11.5603 1.16537 -4.6881
upperback -0.169783 1.00104 1.39734
thorax -6.79017 0.671824 3.9577
lowerneck -17.6479 -5.59161 -11.3535
upperneck 15.7485 -6.28795 8.10214
head 8.42771 -2.87106 3.7945
rclavicle 2.38542e-014 2.06736e-014
rhumerus -48.0598 8.96423 -92.6516
rradius 102.577
rwrist -4.15238
rhand -13.6512 24.0991
rfingers 7.12502
rthumb 12.4654 -5.50919
lclavicle 2.38542e-014 2.06736e-014
lhumerus -44.0838 -12.578 91.3531
lradius 103.99
lwrist 23.0314
lhand -16.2996 7.84649
lfingers 7.12502
lthumb 9.91107 37.5932
rfemur -12.4143 -0.958998 16.9794
rtibia 84.8129
rfoot 1.51587 -6.16497
rtoes 2.22049
lfemur -22.1453 -1.41641 -28.6944
ltibia 42.8559
lfoot -17.786 -3.73268
ltoes -0.506117
131
root -6.17494 16.7877 9.18777 -3.91796 -44.2737 10.4782
lowerback 12.1822 1.51412 -5.44808
upperback 0.167045 1.27645 0.656
thorax -6.81111 0.80925 3.54587
lowerneck -18.6318 -5.94286 -10.3817
upperneck 15.9631 -6.96015 8.19382
head 8.71049 -3.09507 3.56113
rclavicle 7.65321e-014 8.74653e-015
rhumerus -47.9278 6.82074 -92.8789
rradius 101.506
rwrist -3.26127
rhand -13.7637 23.7906
rfingers 7.12502
rthumb 12.357 -5.82421
lclavicle 7.65321e-014 8.74653e-015
lhumerus -41.7418 -13.7814 90.3259
lradius 103.543
lwrist 22.3232
lhand -15.9177 7.22376
lfingers 7.12502
lthumb 10.2796 36.9526
rfemur -14.1984 -2.28644 15.4138
rtibia 86.8059
rfoot 0.164957 -5.25367
rtoes -0.396227
lfemur -20.2078 -1.20086 -29.9372
ltibia 42.684
lfoot -19.1092 -2.86652
ltoes -2.24113
132
root -6.39982 16.7407 9.44747 -5.05397 -44.2556 12.5654
lowerback 11.5857 1.59155 -6.9043
upperback 0.255969 1.18392 0.0999581
thorax -6.3925 0.785552 3.80243
lowerneck -18.9219 -6.06048 -10.2976
upperneck 15.8891 -7.15528 8.40504
head 8.76143 -3.15248 3.5874
rclavicle 9.54166e-015 7.95139e-016
rhumerus -48.2159 5.75598 -92.9685
rradius 100.754
rwrist -2.63407
rhand -13.6981 23.6101
rfingers 7.12502
rthumb 12.4202 -6.00093
lclavicle 9.54166e-015 7.95139e-016
lhumerus -39.9951 -13.8339 89.8517
lradius 103.381
lwrist 22.2139
lhand -16.6059 6.81499
lfingers 7.12502
lthumb 9.61562 36.5755
rfemur -16.5307 -3.45136 13.1652
rtibia 88.4657
rfoot 0.0560278 -5.5936
rtoes 1.35561
lfemur -19.0787 -1.11069 -31.714
ltibia 42.7071
lfoot -20.403 -2.4115
ltoes -3.55831
133
root -6.62544 16.7128 9.72473 -5.24636 -44.5254 13.0636
lowerback 10.8234 1.32129 -7.03186
upperback 0.369229 0.868892 0.00488444
thorax -5.80549 0.611513 3.83542
lowerneck -18.7924 -5.8942 -10.7719
upperneck 15.6813 -6.86734 8.76532
head 8.67076 -3.01331 3.83168
rclavicle 8.44835e-014 -1.98785e-014
rhumerus -49.2158 6.07716 -93.0645
rradius 100.744
rwrist -2.61529
rhand -13.6686 23.552
rfingers 7.12502
rthumb 12.4486 -6.05731
lclavicle 8.44835e-014 -1.98785e-014
lhumerus -38.8373 -13.1167 89.7894
lradius 103.816
lwrist 23.7641
lhand -19.6697 7.92014
lfingers 7.12502
lthumb 6.65872 37.7954
rfemur -18.6282 -4.35913 12.1651
rtibia 89.5149
rfoot 0.24063 -5.92623
rtoes 6.12138
lfemur -17.8102 -1.43832 -32.2805
ltibia 42.727
lfoot -21.3321 -1.5502
ltoes -4.16953
134
root -6.83796 16.7002 9.94396 -2.28248 -45.0818 9.82226
lowerback 10.2531 0.974575 -4.64233
upperback 0.222918 0.764848 0.476266
thorax -5.5956 0.502495 3.00324
lowerneck -19.0503 -5.64011 -10.5065
upperneck 15.8124 -6.57375 8.76982
head 8.71996 -2.85268 3.83048
rclavicle -4.09496e-014 2.22639e-014
rhumerus -50.0237 5.87454 -93.4615
rradius 100.773
rwrist -2.40263
rhand -13.0191 23.603
rfingers 7.12502
rthumb 13.0748 -5.96716
lclavicle -4.09496e-014 2.22639e-014
lhumerus -37.6865 -12.1661 89.1475
lradius 104.112
lwrist 23.5909
lhand -20.5931 7.59759
lfingers 7.12502
lthumb 5.76723 37.4991
rfemur -22.0229 -4.77929 15.0017
rtibia 90.2672
rfoot 0.304667 -6.32065
rtoes 7.71314
lfemur -17.853 -1.81977 -29.7495
ltibia 43.1275
lfoot -21.6871 -1.40263
ltoes -2.34899
135
root -7.07431 16.7039 10.2364 -1.96611 -45.6828 9.28557
lowerback 9.69499 0.843313 -3.93207
upperback 0.430081 0.701816 0.482345
thorax -5.04837 0.438455 2.62209
lowerneck -19.3506 -5.43882 -10.2432
upperneck 15.8272 -6.28862 8.5277
head 8.72976 -2.71965 3.74092
rclavicle -4.27387e-014 1.35174e-014
rhumerus -50.7251 5.61715 -93.6981
rradius 100.883
rwrist -2.37358
rhand -12.4692 24.0971
rfingers 7.12502
rthumb 13.6048 -5.43837
lclavicle -4.27387e-014 1.35174e-014
lhumerus -36.698 -10.8715 88.7222
lradius 104.315
lwrist 22.7335
lhand -18.1756 7.2718
lfingers 7.12502
lthumb 8.10086 37.0965
rfemur -23.607 -5.08423 15.1525
rtibia 90.3707
rfoot -0.386874 -5.80868
rtoes 7.26646
lfemur -16.3463 -1.9016 -29.6554
ltibia 43.3427
lfoot -22.3507 -0.559158
ltoes -3.37896
136
root -7.2941 16.7159 10.4861 -1.83584 -45.3263 9.18774
lowerback 9.80304 0.412428 -4.00894
upperback 0.387403 0.126807 0.699534
thorax -5.11102 0.161408 2.97405
lowerneck -19.4215 -5.23232 -10.334
upperneck 15.6056 -5.89989 8.26779
head 8.62096 -2.56658 3.71789
rclavicle 9.93923e-015 3.97569e-015
rhumerus -51.9659 6.34575 -93.68
rradius 101.671
rwrist -3.05828
rhand -12.7875 24.0695
rfingers 7.12502
rthumb 13.298 -5.48621
lclavicle 9.93923e-015 3.97569e-015
lhumerus -36.077 -9.2791 88.7175
lradius 104.764
lwrist 22.7114
lhand -17.1658 6.70473
lfingers 7.12502
lthumb 9.07531 36.4895
rfemur -25.5356 -6.22321 15.3112
rtibia 90.2967
rfoot -0.530566 -5.71291
rtoes 5.59896
lfemur -15.2276 -2.36461 -29.7542
ltibia 43.5956
lfoot -22.3621 0.111114
ltoes -6.44426
137
root -7.5158 16.7325 10.7106 -1.81261 -45.1986 9.31309
lowerback 10.0616 0.0692435 -4.53781
upperback 0.258804 -0.390016 0.939855
thorax -5.34512 -0.0691733 3.60237
lowerneck -19.6893 -4.96347 -10.4074
upperneck 15.7557 -5.44806 8.07653
head 8.66892 -2.37263 3.7268
rclavicle 1.78906e-014 -5.56597e-015
rhumerus -53.0352 7.20752 -93.7733
rradius 102.316
rwrist -4.07606
rhand -12.6406 23.6867
rfingers 7.12502
rthumb 13.4396 -5.85974
lclavicle 1.78906e-014 -5.56597e-015
lhumerus -35.6601 -7.64388 88.7704
lradius 105.454
lwrist 23.5415
lhand -16.4707 6.62654
lfingers 7.12502
lthumb 9.74601 36.381
rfemur -27.6619 -6.72781 15.6008
rtibia 89.9406
rfoot -0.417476 -5.87081
rtoes 5.33621
lfemur -14.1197 -2.52071 -29.8638
ltibia 43.4375
lfoot -21.7036 0.344179
ltoes -9.24849
138
root -7.74803 16.7593 10.9457 -1.69211 -45.3823 9.47763
lowerback 9.87834 -0.158791 -4.97151
upperback 0.176497 -0.727649 1.06954
thorax -5.29023 -0.222401 4.03098
lowerneck -19.9778 -4.72112 -10.3417
upperneck 15.9243 -5.08423 7.9448
head 8.7342 -2.20583 3.72165
rclavicle -9.91935e-014 1.03368e-014
rhumerus -53.6519 7.5398 -93.923
rradius 102.563
rwrist -5.13936
rhand -11.5614 23.7882
rfingers 7.12502
rthumb 14.4796 -5.6866
lclavicle -9.91935e-014 1.03368e-014
lhumerus -35.2439 -6.38703 88.8321
lradius 106.444
lwrist 24.7269
lhand -16.137 8.44156
lfingers 7.12502
lthumb 10.068 38.1807
rfemur -29.6497 -6.82787 15.7977
rtibia 89.2365
rfoot -3.50361 -4.11587
rtoes -1.2463
lfemur -13.0479 -2.33394 -30.0016
ltibia 43.1956
lfoot -21.0001 0.113971
ltoes -10.758
139
root -7.99085 16.803 11.1978 -1.5858 -45.825 9.76031
lowerback 9.39636 -0.378714 -5.30224
upperback 0.0890765 -1.03022 1.10266
thorax -5.07322 -0.367283 4.28613
lowerneck -20.1226 -4.47466 -10.3761
upperneck 15.9462 -4.7365 8.02195
head 8.73499 -2.0338 3.80306
rclavicle 3.55825e-014 1.66979e-014
rhumerus -54.369 7.99711 -94.164
rradius 102.872
rwrist -6.0141
rhand -10.9697 23.8818
rfingers 7.12502
rthumb 15.0496 -5.5512
lclavicle 3.55825e-014 1.66979e-014
lhumerus -34.9667 -5.34237 88.7663
lradius 107.589
lwrist 25.6171
lhand -16.5138 11.4368
lfingers 7.12502
lthumb 9.70447 41.1932
rfemur -31.6113 -6.7166 15.9208
rtibia 88.112
rfoot -5.0291 -3.30146
rtoes -4.66667
lfemur -11.951 -1.98785 -30.2731
ltibia 42.8419
lfoot -20.2634 0.0394681
ltoes -12.518
140
root -8.23209 16.8556 11.4512 -1.82928 -45.788 9.92547
lowerback 9.38207 -0.672573 -5.42411
upperback 0.168148 -1.43426 1.06792
thorax -4.93435 -0.570785 4.36959
lowerneck -20.2779 -4.2565 -10.1779
upperneck 15.8419 -4.47062 8.01162
head 8.69451 -1.89371 3.80221
rclavicle 1.96797e-014 -5.56597e-015
rhumerus -55.0764 8.33372 -94.3642
rradius 103.353
rwrist -6.7146
rhand -11.2589 23.9331
rfingers 7.12502
rthumb 14.7711 -5.5205
lclavicle 1.96797e-014 -5.56597e-015
lhumerus -34.5228 -4.55468 88.5723
lradius 107.623
lwrist 25.4107
lhand -17.2553 8.97326
lfingers 7.12502
lthumb 8.98899 38.7617
rfemur -32.7311 -6.78039 16.1478
rtibia 86.4843
rfoot -5.20937 -3.68987
rtoes -5.71724
lfemur -10.4273 -2.14864 -30.403
ltibia 42.3611
lfoot -18.8283 -0.686201
ltoes -22.4346
141
root -8.47988 16.9288 11.7193 -1.54942 -45.6194 9.70265
lowerback 9.16302 -0.879777 -5.1406
upperback 0.0974885 -1.66841 1.06582
thorax -4.86608 -0.693641 4.23135
lowerneck -20.046 -4.16766 -9.99396
upperneck 15.5298 -4.3946 7.93913
head 8.53432 -1.85732 3.75394
rclavicle -7.31528e-014 -2.38542e-015
rhumerus -55.9219 7.9868 -94.184
rradius 103.945
rwrist -7.31155
rhand -11.0546 23.4404
rfingers 7.12502
rthumb 14.9679 -5.99873
lclavicle -7.31528e-014 -2.38542e-015
lhumerus -34.2381 -4.39863 88.6811
lradius 107.899
lwrist 25.6827
lhand -17.4499 8.06477
lfingers 7.12502
lthumb 8.8012 37.8613
rfemur -33.7589 -6.67573 16.6424
rtibia 84.3611
rfoot -5.62279 -3.96082
rtoes -4.81161
lfemur -9.18249 -2.80594 -30.2884
ltibia 41.8044
lfoot -16.7348 -1.78418
ltoes -22.6431
142
root -8.7351 17.0233 12.0036 -1.3272 -45.3152 9.42885
lowerback 9.04988 -1.21613 -4.75461
upperback -0.054037 -2.06833 1.12969
thorax -4.92803 -0.894384 4.12942
lowerneck -19.7133 -4.01951 -9.95572
upperneck 15.3552 -4.20978 7.85631
head 8.39661 -1.78257 3.74328
rclavicle 2.62396e-014 -2.78299e-014
rhumerus -56.9603 7.59678 -93.9371
rradius 104.358
rwrist -7.4569
rhand -10.6689 23.0156
rfingers 7.12502
rthumb 15.3394 -6.39542
lclavicle 2.62396e-014 -2.78299e-014
lhumerus -34.2245 -4.05441 88.7956
lradius 108.297
lwrist 26.273
lhand -17.1688 8.30071
lfingers 7.12502
lthumb 9.0725 38.0856
rfemur -34.3104 -6.69044 17.0537
rtibia 81.7545
rfoot -6.48063 -3.63588
rtoes -0.750196
lfemur -7.81939 -3.79354 -30.2321
ltibia 41.2173
lfoot -14.7499 -2.67472
ltoes -23.3373
143
root -8.99092 17.1283 12.2674 -0.651011 -45.4547 8.66993
lowerback 8.96301 -1.58453 -4.2873
upperback -0.222804 -2.49625 1.35491
thorax -5.02038 -1.10859 4.15563
lowerneck -19.6998 -3.67371 -9.74201
upperneck 15.4005 -3.76834 7.69793
head 8.35879 -1.57839 3.71364
rclavicle 1.78906e-014 1.11319e-014
rhumerus -57.9824 7.89928 -94.2232
rradius 104.532
rwrist -6.40421
rhand -11.9615 23.7015
rfingers 7.12502
rthumb 14.0941 -5.8005
lclavicle 1.78906e-014 1.11319e-014
lhumerus -34.2036 -3.41485 88.6721
lradius 108.709
lwrist 26.701
lhand -17.2604 8.87001
lfingers 7.12502
lthumb 8.98407 38.6587
rfemur -35.0128 -6.24941 18.0081
rtibia 78.8106
rfoot -7.02745 -3.32805
rtoes 1.16612
lfemur -6.68384 -4.10399 -29.617
ltibia 40.5174
lfoot -12.5089 -3.89958
ltoes -24.8399
144
root -9.25344 17.2222 12.5001 0.686883 -47.1099 7.27888
lowerback 8.61087 -1.37501 -3.90053
upperback -0.346759 -2.14206 1.81274
thorax -4.98414 -0.937006 4.36412
lowerneck -19.6259 -3.48237 -9.84221
upperneck 15.338 -3.48269 7.70711
head 8.29971 -1.4497 3.77068
rclavicle 5.98342e-014 4.77083e-015
rhumerus -58.5602 8.10966 -94.1586
rradius 104.812
rwrist -6.95319
rhand -10.4244 24.0762
rfingers 7.12502
rthumb 15.5749 -5.31663
lclavicle 5.98342e-014 4.77083e-015
lhumerus -34.1154 -2.89488 88.6113
lradius 109.123
lwrist 27.2549
lhand -17.4616 8.74325
lfingers 7.12502
lthumb 8.78993 38.5402
rfemur -36.1881 -4.13978 19.6601
rtibia 75.6718
rfoot -7.18716 -3.18287
rtoes -0.78014
lfemur -5.81585 -2.99569 -28.4087
ltibia 39.5678
lfoot -9.54227 -5.13249
ltoes -25.4593
